<svg xmlns="http://www.w3.org/2000/svg" viewBox="0 0 512 512">
  <rect width="512" height="512" rx="120" fill="#1d4d3c" />
  <path
    d="M111 140c49-28 106-42 171-42 40 0 78 6 119 18v227c-42-11-80-16-113-16-56 0-99 14-129 42V140Z"
    fill="#f6e9d1"
  />
  <path
    d="M401 140c-39-12-79-18-119-18-72 0-128 18-171 54v38c43-33 95-50 156-50 44 0 89 10 134 29V140Z"
    fill="#d86f2c"
    opacity="0.88"
  />
  <path
    d="M256 156c-42 0-76 31-82 73-38 12-63 46-63 83 0 53 39 91 95 91h100c52 0 95-39 95-92 0-44-29-80-71-89-8-39-39-66-74-66Z"
    fill="#2d6b55"
  />
  <path
    d="M221 233c0-18 15-33 35-33 19 0 35 15 35 33 0 16-11 28-24 37l-11 7-11-7c-14-9-24-21-24-37Z"
    fill="#f6e9d1"
  />
  <path
    d="M163 351c22-19 49-28 82-28 36 0 67 12 93 35"
    fill="none"
    stroke="#f6e9d1"
    stroke-linecap="round"
    stroke-width="18"
  />
</svg>
